<?xml version="1.0" encoding="utf-8"?>
<!-- Generator: Adobe Illustrator 28.4.1, SVG Export Plug-In . SVG Version: 6.00 Build 0)  -->
<svg version="1.1" id="Layer_1" xmlns="http://www.w3.org/2000/svg" xmlns:xlink="http://www.w3.org/1999/xlink" x="0px" y="0px"
	 viewBox="0 0 24 24" style="enable-background:new 0 0 24 24;" xml:space="preserve">
<style type="text/css">
	.st0{display:none;}
	.st1{display:inline;}
	.st2{fill:#FF0000;}
	.st3{fill:#FFFFFF;}
	.st4{fill:none;stroke:#B20000;stroke-width:2;stroke-miterlimit:10;}
	.st5{fill:none;stroke:#B20000;stroke-width:2.2;stroke-miterlimit:10;}
	.st6{display:inline;fill:none;stroke:#000000;stroke-miterlimit:10;}
</style>
<g id="bg" class="st0">
	<rect class="st1" width="24" height="24"/>
</g>
<g id="Layer_1_00000096768150902052373860000008084347068063816864_" focusable="false">
	<g>
		<path class="st2" d="M18.3,10.2l-1.4-0.5l1.5-0.8c2.1-1.1,2.7-3.6,1.6-5.5c-1.1-2.1-3.6-2.7-5.5-1.6L5.5,6.5
			C3.4,7.6,2.7,10.1,3.7,12c0.4,0.8,1.1,1.5,1.9,1.8L7,14.3l-1.5,0.8c-1.9,1.1-2.6,3.6-1.5,5.6c1.1,1.9,3.4,2.6,5.3,1.6l9.2-4.9
			c2.1-1.1,2.7-3.6,1.8-5.5C19.8,11.2,19.1,10.5,18.3,10.2z"/>
		<polygon class="st3" points="9.8,14.9 15.3,12 9.8,9.1 		"/>
	</g>
</g>
<g id="Layer_2_00000075134610067652637160000005834569799989128635_">
	<circle class="st4" cx="12" cy="12" r="10.9"/>
	<line class="st5" x1="19.6" y1="19.8" x2="4.2" y2="4.2"/>
</g>
<g id="Layer_3" class="st0">
	<rect x="2.8" y="2.8" class="st6" width="18.5" height="18.5"/>
</g>
</svg>
